<svg width="20" height="20" viewBox="0 0 20 20" fill="none" xmlns="http://www.w3.org/2000/svg">
<path d="M9.99998 7.49995C10.9199 7.49995 11.6656 6.75423 11.6656 5.83433C11.6656 4.91443 10.9199 4.1687 9.99998 4.1687C9.08008 4.1687 8.33435 4.91443 8.33435 5.83433C8.33435 6.75423 9.08008 7.49995 9.99998 7.49995Z" fill="#8696BB"/>
<path d="M12.6031 11.0532C11.7926 11.4571 10.8993 11.6674 9.99374 11.6674C9.08813 11.6674 8.19489 11.4571 7.38436 11.0532C7.13728 10.9282 6.86436 10.863 6.58749 10.8625C6.11114 10.8642 5.65446 11.0527 5.31561 11.3875C5.09221 11.595 4.94354 11.8704 4.89269 12.171C4.84183 12.4716 4.89164 12.7806 5.03437 13.05C5.08517 13.1496 5.14258 13.2457 5.20624 13.3375C5.74616 14.1082 6.46357 14.7377 7.2979 15.1728C8.13224 15.6079 9.05902 15.8359 10 15.8375C10.9396 15.8381 11.8654 15.611 12.6981 15.1756C13.5308 14.7402 14.2455 14.1095 14.7812 13.3375C14.8442 13.2452 14.9016 13.1492 14.9531 13.05C15.0966 12.7834 15.1481 12.4768 15.0995 12.1778C15.0509 11.8789 14.905 11.6044 14.6844 11.3969C14.4175 11.1284 14.0728 10.9506 13.6993 10.8889C13.3257 10.8272 12.9422 10.8847 12.6031 11.0532Z" fill="#8696BB"/>
<path d="M10 0C7.34784 0 4.80429 1.05357 2.92892 2.92893C1.05356 4.8043 0 7.34784 0 10C0 12.6522 1.05356 15.1957 2.92892 17.0711C4.80429 18.9464 7.34784 20 10 20C12.6522 20 15.1957 18.9464 17.0711 17.0711C18.9464 15.1957 20 12.6522 20 10C20 7.34784 18.9464 4.8043 17.0711 2.92893C15.1957 1.05357 12.6522 0 10 0ZM10 2.5C10.8835 2.50165 11.7304 2.85358 12.3548 3.47863C12.9793 4.10368 13.3304 4.95084 13.3312 5.83437C13.3304 6.71762 12.9792 7.56446 12.3546 8.18901C11.7301 8.81356 10.8832 9.1648 10 9.16563C9.11646 9.1648 8.2693 8.81366 7.64425 8.1892C7.01921 7.56474 6.66727 6.71791 6.66562 5.83437C6.66727 4.95055 7.0191 4.1034 7.64406 3.47844C8.26902 2.85348 9.11618 2.50165 10 2.5ZM16.4375 13.8062C16.352 13.9733 16.2549 14.1341 16.1469 14.2875C15.4581 15.2798 14.5391 16.0903 13.4686 16.6498C12.3981 17.2093 11.2079 17.501 10 17.5C8.79306 17.4958 7.60478 17.2018 6.53511 16.6428C5.46544 16.0837 4.54566 15.276 3.85312 14.2875C3.74355 14.1291 3.64538 13.963 3.55937 13.7906C3.25491 13.2091 3.14787 12.5443 3.25441 11.8966C3.36096 11.2489 3.6753 10.6534 4.15 10.2C4.66585 9.68873 5.32976 9.35313 6.04733 9.24092C6.76489 9.12872 7.49957 9.24562 8.14687 9.575C8.72512 9.86239 9.36208 10.012 10.0078 10.012C10.6535 10.012 11.2905 9.86239 11.8687 9.575C12.5211 9.24746 13.2603 9.13484 13.9806 9.25329C14.7008 9.37174 15.3651 9.71518 15.8781 10.2344C16.3453 10.6891 16.6523 11.283 16.7532 11.9271C16.8541 12.5711 16.7433 13.2305 16.4375 13.8062Z" fill="#8696BB"/>
</svg>
