<svg width="20" height="20" viewBox="0 0 20 20" fill="none" xmlns="http://www.w3.org/2000/svg">
<path d="M19.2966 9.26043C19.4925 9.09549 19.6496 8.8894 19.7568 8.65683C19.864 8.42426 19.9186 8.17092 19.9167 7.91485C19.9159 7.44878 19.7317 7.00176 19.4039 6.67046C19.0761 6.33916 18.631 6.15023 18.165 6.14453L14.0228 6.11042C13.8494 6.11076 13.6803 6.05683 13.5391 5.95619C13.3978 5.85556 13.2916 5.71327 13.2354 5.54925L11.8557 1.43193C11.7258 1.04067 11.4765 0.700036 11.1427 0.458066C10.809 0.216096 10.4077 0.084994 9.99543 0.083252C9.5832 0.084994 9.18191 0.216096 8.84816 0.458066C8.51441 0.700036 8.26503 1.04067 8.1352 1.43193L6.76482 5.54925C6.70853 5.71327 6.60234 5.85556 6.46112 5.95619C6.3199 6.05683 6.15073 6.11076 5.97732 6.11042L1.83519 6.14453C1.36915 6.15023 0.924094 6.33916 0.596279 6.67046C0.268463 7.00176 0.0842462 7.44878 0.0834663 7.91485C0.0815964 8.17092 0.136193 8.42426 0.243368 8.65683C0.350543 8.8894 0.507662 9.09549 0.703546 9.26043L4.07678 12.1314C4.20196 12.2369 4.29317 12.3771 4.33895 12.5343C4.38473 12.6915 4.38305 12.8588 4.33411 13.015L3.02574 17.1478C2.87916 17.6081 2.90497 18.106 3.09835 18.5486C3.29173 18.9913 3.63948 19.3485 4.07678 19.5537C4.34245 19.6824 4.63419 19.7482 4.92939 19.746C5.33915 19.7467 5.73937 19.6223 6.07653 19.3894L9.53348 16.9742C9.67036 16.8802 9.8325 16.8299 9.99854 16.8299C10.1646 16.8299 10.3267 16.8802 10.4636 16.9742L13.9205 19.3894C14.2102 19.5897 14.5475 19.7103 14.8984 19.7391C15.2494 19.7679 15.6018 19.704 15.9203 19.5537C16.3576 19.3485 16.7054 18.9913 16.8987 18.5486C17.0921 18.106 17.1179 17.6081 16.9713 17.1478L15.6661 13.0274C15.6181 12.8719 15.6159 12.7058 15.6599 12.5491C15.7039 12.3923 15.7922 12.2516 15.9141 12.1438L19.2966 9.26043ZM9.84042 5.80969C9.94362 5.77519 10.0526 5.76139 10.1612 5.76906C10.2697 5.77673 10.3757 5.80573 10.473 5.85439C10.5704 5.90306 10.6571 5.97043 10.7284 6.05267C10.7997 6.13491 10.854 6.23039 10.8884 6.33365C11.1057 6.98614 11.5213 7.55456 12.077 7.9597C12.6327 8.36484 13.301 8.58652 13.9887 8.59384C14.2078 8.5963 14.4169 8.68545 14.5703 8.84176C14.7237 8.99808 14.8089 9.20883 14.8072 9.42785C14.8064 9.64604 14.7192 9.85501 14.5646 10.009C14.41 10.163 14.2007 10.2495 13.9825 10.2495C12.9479 10.2409 11.9418 9.90901 11.1051 9.30026C10.2684 8.6915 9.64299 7.83635 9.31645 6.85452C9.282 6.75152 9.26824 6.64273 9.27595 6.5344C9.28366 6.42607 9.31269 6.32033 9.36137 6.22325C9.41006 6.12617 9.47743 6.03966 9.55964 5.96869C9.64185 5.89772 9.73727 5.84368 9.84042 5.80969Z" fill="#8696BB"/>
</svg>
