<svg width="20" height="21" viewBox="0 0 20 21" fill="none" xmlns="http://www.w3.org/2000/svg">
<path d="M18.7114 7.03102L13.41 1.53699C12.5023 0.607525 11.278 0.0853203 10.0016 0.083252C8.72526 0.0853203 7.50094 0.607525 6.59332 1.53699L1.28873 7.03102C0.516682 7.83257 0.0831992 8.91862 0.0834199 10.0508V16.3407C0.0834196 17.4755 0.518471 18.564 1.29296 19.3667C2.06744 20.1694 3.11799 20.6209 4.21369 20.6217H5.86827C6.52569 20.6217 7.15618 20.3512 7.62104 19.8698C8.0859 19.3883 8.34705 18.7353 8.34705 18.0544V16.3407C8.34869 15.887 8.52364 15.4525 8.83367 15.132C9.1437 14.8115 9.5636 14.6311 10.0016 14.6303C10.4391 14.6319 10.8583 14.8127 11.1676 15.1331C11.477 15.4535 11.6515 15.8876 11.6531 16.3407V18.0544C11.6531 18.7353 11.9143 19.3883 12.3791 19.8698C12.844 20.3512 13.4745 20.6217 14.1319 20.6217H15.7865C16.8822 20.6209 17.9327 20.1694 18.7072 19.3667C19.4817 18.564 19.9168 17.4755 19.9168 16.3407V10.0508C19.917 8.91862 19.4835 7.83257 18.7114 7.03102ZM13.4781 7.53486C13.4013 7.61453 13.31 7.67765 13.2095 7.72061C13.109 7.76357 13.0012 7.78552 12.8925 7.78517C12.7843 7.78527 12.6771 7.7632 12.5771 7.72024C12.4772 7.67728 12.3864 7.61429 12.31 7.53486L10.8289 6.00089C10.6049 5.78292 10.309 5.6616 10.0016 5.6616C9.69424 5.6616 9.3984 5.78292 9.17434 6.00089L7.69327 7.53486C7.5382 7.69497 7.32817 7.78487 7.10921 7.78487C6.89025 7.78487 6.68022 7.69497 6.52515 7.53486C6.37056 7.37425 6.28376 7.15672 6.28376 6.92994C6.28376 6.70316 6.37056 6.48562 6.52515 6.32501L8.00622 4.78783C8.54393 4.25657 9.25851 3.96018 10.0016 3.96018C10.7448 3.96018 11.4593 4.25657 11.9971 4.78783L13.4781 6.32501C13.6327 6.48562 13.7195 6.70316 13.7195 6.92994C13.7195 7.15672 13.6327 7.37425 13.4781 7.53486Z" fill="#8696BB"/>
</svg>
