<svg width="21" height="16" viewBox="0 0 21 16" fill="none" xmlns="http://www.w3.org/2000/svg">
<path d="M0.76001 1.48999H20.2699C20.3668 1.48968 20.4628 1.47015 20.5521 1.43237C20.6414 1.3946 20.7222 1.33938 20.7899 1.27002C20.9306 1.1295 21.0098 0.938836 21.01 0.73999C21.0083 0.544393 20.9291 0.357537 20.7899 0.220093C20.7222 0.150732 20.6414 0.0955117 20.5521 0.0577393C20.4628 0.0199668 20.3668 0.00030625 20.2699 0H0.76001C0.561164 0.000175052 0.370498 0.0794003 0.22998 0.220093C0.0908033 0.357537 0.0117349 0.544393 0.0100098 0.73999C0.0101848 0.938836 0.089288 1.1295 0.22998 1.27002C0.370498 1.41071 0.561164 1.48982 0.76001 1.48999ZM0.76001 8.73999H12.2C12.2978 8.74177 12.395 8.72416 12.486 8.68811C12.5769 8.65206 12.6599 8.59834 12.73 8.53003C12.7983 8.45996 12.852 8.37711 12.8881 8.28613C12.9241 8.19516 12.9417 8.09784 12.9399 8C12.9417 7.90216 12.9241 7.80496 12.8881 7.71399C12.852 7.62301 12.7983 7.54016 12.73 7.47009C12.5861 7.33573 12.3968 7.26063 12.2 7.26001H0.75C0.553165 7.26063 0.363812 7.33573 0.219971 7.47009C0.0792782 7.61061 0.000175052 7.80115 0 8C0.000175052 8.19884 0.0792782 8.38951 0.219971 8.53003C0.29004 8.59834 0.372893 8.65206 0.463867 8.68811C0.554842 8.72416 0.652161 8.74177 0.75 8.73999H0.76001ZM0.76001 16H20.2699C20.3668 15.9997 20.4628 15.9802 20.5521 15.9424C20.6414 15.9046 20.7222 15.8494 20.7899 15.78C20.9291 15.6426 21.0083 15.4556 21.01 15.26C21.0098 15.0612 20.9306 14.8706 20.7899 14.7301C20.7222 14.6607 20.6414 14.6055 20.5521 14.5677C20.4628 14.53 20.3668 14.5103 20.2699 14.51H0.76001C0.561164 14.5102 0.370498 14.5894 0.22998 14.7301C0.089288 14.8706 0.0101848 15.0612 0.0100098 15.26C0.0117349 15.4556 0.0908033 15.6426 0.22998 15.78C0.370498 15.9207 0.561164 15.9998 0.76001 16Z" fill="#2D3650"/>
</svg>
