<svg width="20" height="22" viewBox="0 0 20 22" fill="none" xmlns="http://www.w3.org/2000/svg">
<path fill-rule="evenodd" clip-rule="evenodd" d="M18.0007 3.14387H13.875C13.6529 2.24416 13.1518 1.44723 12.4504 0.878195C11.749 0.309163 10.8871 0.000265252 10 0C9.11331 0.000442715 8.25189 0.309476 7.55108 0.878542C6.85028 1.44761 6.3498 2.24445 6.12832 3.14387H1.99925C1.73265 3.14383 1.47669 3.25354 1.2866 3.44936C1.09651 3.64517 0.987506 3.9114 0.983063 4.19064V20.9532C0.987506 21.2325 1.09651 21.4987 1.2866 21.6945C1.47669 21.8903 1.73265 22 1.99925 22H18.0007C18.2673 22 18.5233 21.8903 18.7134 21.6945C18.9035 21.4987 19.0125 21.2325 19.0169 20.9532V4.19064C19.0125 3.9114 18.9035 3.64517 18.7134 3.44936C18.5233 3.25354 18.2673 3.14383 18.0007 3.14387ZM10 1.06452C10.2695 1.06452 10.528 1.17667 10.7186 1.37631C10.9091 1.57595 11.0162 1.8467 11.0162 2.12903C11.0117 2.40827 10.9027 2.6745 10.7126 2.87032C10.5225 3.06613 10.2666 3.17585 10 3.17581C9.7334 3.17585 9.47745 3.06613 9.28735 2.87032C9.09726 2.6745 8.98826 2.40827 8.98381 2.12903C8.98381 1.8467 9.09087 1.57595 9.28144 1.37631C9.47201 1.17667 9.73049 1.06452 10 1.06452ZM10.2507 17.3019H4.74972C4.65112 17.3019 4.55351 17.2815 4.46247 17.2419C4.37142 17.2023 4.28873 17.1442 4.21917 17.071C4.14961 16.9978 4.09455 16.9109 4.05713 16.8154C4.01971 16.7198 4.00069 16.6175 4.00114 16.5142C4.00114 16.3062 4.07998 16.1068 4.22037 15.9597C4.36076 15.8126 4.55118 15.73 4.74972 15.73H10.2507C10.4495 15.73 10.6403 15.8125 10.7812 15.9595C10.9221 16.1064 11.0017 16.3059 11.0026 16.5142C10.9991 16.7206 10.9183 16.9174 10.7776 17.0621C10.637 17.2067 10.4478 17.2878 10.2507 17.2877V17.3019ZM15.2503 13.1113H4.74972C4.65112 13.1113 4.55351 13.0909 4.46247 13.0513C4.37142 13.0116 4.28873 12.9535 4.21917 12.8803C4.14961 12.8072 4.09455 12.7203 4.05713 12.6247C4.01971 12.5292 4.00069 12.4268 4.00114 12.3236C4.00114 12.1156 4.07998 11.9161 4.22037 11.769C4.36076 11.622 4.55118 11.5394 4.74972 11.5394H15.2503C15.3489 11.5389 15.4466 11.5588 15.5378 11.598C15.629 11.6372 15.7119 11.6949 15.7818 11.7678C15.8517 11.8407 15.9071 11.9273 15.9449 12.0226C15.9828 12.118 16.0022 12.2203 16.0022 12.3236C15.9996 12.5303 15.9191 12.7276 15.7782 12.8724C15.6374 13.0173 15.4477 13.0981 15.2503 13.0971V13.1113ZM15.2503 8.92065H4.74972C4.65112 8.92065 4.55351 8.90025 4.46247 8.86061C4.37142 8.82098 4.28873 8.7629 4.21917 8.6897C4.14961 8.61651 4.09455 8.52964 4.05713 8.43409C4.01971 8.33854 4.00069 8.23619 4.00114 8.13291C4.00114 7.92493 4.07998 7.72546 4.22037 7.5784C4.36076 7.43133 4.55118 7.34871 4.74972 7.34871H15.2503C15.3489 7.34824 15.4466 7.36818 15.5378 7.40738C15.629 7.44658 15.7119 7.50427 15.7818 7.57714C15.8517 7.65001 15.9071 7.73661 15.9449 7.83199C15.9828 7.92736 16.0022 8.02963 16.0022 8.13291C15.9996 8.33965 15.9191 8.53692 15.7782 8.68179C15.6374 8.82666 15.4477 8.90741 15.2503 8.90645V8.92065Z" fill="#1864D3"/>
</svg>
