<svg width="15" height="14" viewBox="0 0 15 14" fill="none" xmlns="http://www.w3.org/2000/svg">
<path d="M13.8478 13.0172L10.3658 9.53527C11.3147 8.37478 11.7812 6.89399 11.6689 5.39918C11.5566 3.90437 10.874 2.50991 9.76243 1.50424C8.65081 0.498565 7.19518 -0.0413785 5.69663 -0.00390996C4.19807 0.0335586 2.77125 0.645573 1.71128 1.70554C0.65131 2.76551 0.0392959 4.19234 0.00182735 5.69089C-0.0356412 7.18945 0.504303 8.64508 1.50998 9.75669C2.51565 10.8683 3.91011 11.5509 5.40492 11.6632C6.89972 11.7755 8.38052 11.309 9.541 10.3601L13.0229 13.842C13.1329 13.9483 13.2803 14.0071 13.4332 14.0057C13.5862 14.0044 13.7325 13.9431 13.8406 13.8349C13.9488 13.7268 14.0102 13.5804 14.0115 13.4275C14.0128 13.2746 13.954 13.1272 13.8478 13.0172ZM5.852 10.5129C4.92903 10.5129 4.02677 10.2392 3.25934 9.72646C2.49191 9.21368 1.89378 8.48485 1.54057 7.63212C1.18736 6.7794 1.09494 5.84109 1.27501 4.93585C1.45507 4.0306 1.89953 3.19908 2.55217 2.54644C3.20482 1.89379 4.03634 1.44933 4.94158 1.26927C5.84683 1.08921 6.78514 1.18162 7.63786 1.53483C8.49058 1.88804 9.21942 2.48618 9.7322 3.25361C10.245 4.02104 10.5187 4.92329 10.5187 5.84627C10.5173 7.08352 10.0252 8.2697 9.1503 9.14456C8.27543 10.0194 7.08925 10.5115 5.852 10.5129Z" fill="#808DBA"/>
</svg>
